<?xml version="1.0" encoding="UTF-8"?>
<svg id="katman_1" xmlns="http://www.w3.org/2000/svg" version="1.1" viewBox="0 0 841.9 595.3">
  <!-- Generator: Adobe Illustrator 29.0.0, SVG Export Plug-In . SVG Version: 2.1.0 Build 186)  -->
  <defs>
    <style>
      .st0 {
        fill: #003349;
      }
    </style>
  </defs>
  <g id="Layer_1">
    <g id="Layer_1-2">
      <g id="wkHaIe">
        <g>
          <path class="st0" d="M635,375.6c-1.9-.8-4.2-1.9-6.1-3-.8-.3-.8-1.9-1.4-2.8.8,0,1.9-.8,3-.6,5.5,1.1,7.8,0,8.9-5.5.8-4.4,1.4-8.6,1.4-13,.8-16.3,0-32.7-1.7-48.8,0-.8,0-1.4-.3-2.5-5,.8-10.3,1.7-15.2,2.5,0,3.9.3,7.8.6,11.4.6,11.4,0,22.7-3,33.5-1.4,5.3-3.9,10.3-8.3,13.6-5,4.2-11.6,4.4-17.2.8-.3-.3-1.1-.6-1.4-1.1v-3.9c1.1,0,2.8,0,3.3.6,2.5,3.3,6.1,2.5,8.3-.6,2.5-3.3,3.9-7.2,4.2-11.4v-40.7c-4.4-1.4-9.1,2.2-12.5-2.5-.3,5.3-.6,10-1.4,14.7-.8,6.1-2.8,12.2-6.1,17.7-5.3,8.3-13.6,12.2-22.7,10.5-6.4-1.4-10.3-5.5-12.5-11.4-3-7.2-3.9-15-3.9-22.7,0-11.6,3.3-22.4,9.4-32.1,4.7-7.2,12.5-10.3,20.8-8.3,5.3,1.1,9.7,4.2,11.6,9.1,1.9,4.7,2.8,9.7,3.9,14.7v2.8c4.2,0,8.3-.3,12.5-.6,0-5-.6-10.3-.8-15-.8-10.8-.8-21.6,1.4-32.1,2.8-13.6,14.7-24.1,28.5-25.5,1.7,0,3.3,0,5,.3,1.9.3,3.9,1.7,3.3,4.2-.3,2.2-1.9,3.9-4.4,3.9s-2.8-.3-3.9-.8c-5.5-1.7-8.9-.8-11.1,4.4-1.9,4.4-3.3,9.4-4.2,14.1-1.9,14.4-1.7,28.8-.6,43.2,0,.3,0,.8.3,1.7,5-.8,9.7-1.4,15-1.9v-5c-.3-11.4-.8-23,1.4-34.1,1.7-9.1,6.6-16.6,14.4-21.6,4.7-3,9.7-3.6,14.7-1.9,1.4.3,2.5,1.4,3.9,2.2,1.9,1.9,2.2,4.4.8,6.4-1.7,1.9-4.2,1.9-6.4,0-.6-.3-.8-.8-1.4-1.4-2.5-2.2-5-2.5-6.9.3s-3.9,6.1-4.4,9.7c-2.5,14.4-1.9,29.1-1.9,43.8,0,0,0,.3,0,0h9.1c1.7,0,3.6,0,5.3.6,3.9.6,4.4,1.9,4.2,5.5h0c-1.7,2.5-3.6,2.8-6.6,2.2-3.9-.8-7.5-.8-11.6-1.1,0,5,.3,9.4.8,13.9.8,13.6,1.4,27.2,0,40.4-.6,3.9-1.4,8-2.5,11.9-1.7,5.5-5.5,9.4-11.6,10.8-.3,0-.6.3-.8.6h-3.6.6ZM585.6,308c-.8-6.6-1.1-13.3-2.5-19.7-.6-3.3-2.5-6.6-4.7-9.1-2.2-3-5.8-2.8-8,0-1.9,2.2-3.3,5-4.2,7.8-3.6,11.6-3.9,23.5-1.9,35.2.6,3.6,1.9,7.2,3.6,10.8,2.5,5.3,8.3,5.5,11.4.3,1.1-1.7,2.2-3.9,2.5-5.5,1.4-6.6,2.5-13,3.6-19.9l.3.3Z"/>
          <path class="st0" d="M775.1,278.9c-.6-1.4-.8-3.3-1.4-5-.3,1.4-.8,3-1.4,4.4h-.6c-.6-1.7-1.1-3.6-1.4-5.3h-.6v5h-.3v-7.8h.8c.6,1.9,1.1,3.9,1.9,6.4.6-1.9.8-3.3,1.1-4.7.3-.8,1.1-1.4,1.9-1.9v8.9h-.3Z"/>
          <path class="st0" d="M139.6,319.6v15.2c0,6.6-.3,6.9-7.2,6.9h-58.7c-6.1,0-7.2-1.1-7.2-7.2v-81.2c0-5.8,2.2-8.3,8.3-8.3h70.4c3.9,0,7.8.3,11.9,1.4,14.1,3.6,21.3,13.6,24.1,27.2,1.4,7.5,1.1,15-1.4,22.4-4.4,13-14.1,19.4-27.2,21.9-4.2.8-8.3.8-12.7,1.4h0l-.3.3ZM139.6,283.1h0v10.8c0,.8.8,2.5,1.4,2.8,5.8,1.9,14.1-3,15.8-9.1,2.8-10.5-3.6-18.6-14.1-18.3-2.5,0-3.3.8-3.3,3.3v10.5h.3ZM101.4,283.3c-.8-1.1-1.7-1.9-2.2-2.5-6.9-8.6-14.1-17.2-21.1-25.8-1.1-1.4-2.2-2.8-4.2-1.4-1.4,1.4-.6,2.8.6,4.2,7.8,9.4,15.8,18.8,23.8,28.3,1.9,2.5,4.2,2.5,6.1,0,2.5-3,5-6.1,7.5-9.1.8-1.1,1.9-2.5,0-3.3-.8-.3-2.5.3-3.3.8-2.5,2.8-5,5.8-7.8,9.1l.6-.3ZM101.1,304.1c2.8,3.9,5.5,6.9,7.8,10.3.8,1.1,1.7,1.9,3.3,1.1,1.4-1.1.8-2.2,0-3.3-2.5-3.3-5-6.6-7.5-10-1.7-2.2-3.9-2.5-5.5-.3-8.3,9.1-16.6,18.3-24.7,27.7-.6.8,0,2.5,0,3.6,1.1-.3,2.8,0,3.3-.8,1.9-1.9,3.3-4.2,5-6.1,6.1-7.2,11.9-14.1,18.3-21.6h0v-.6ZM93,292.8c-.6-.8-.8-1.7-1.4-2.2-1.7-2.2-3.6-4.4-5.5-6.6-3-3.6-6.1-7.2-9.4-10.8-.6-.6-1.7-.3-2.5-.6,0,.8-.8,1.9-.3,3,.3,1.1,1.4,1.9,1.9,2.8,3.3,3.9,6.6,7.8,10,11.4,2.2,2.6,2.2,5.2,0,7.8-3.6,4.4-7.2,8.6-10.8,13-.6.8,0,2.2-.3,3.3.8-.3,2.5-.3,3-1.1,5-5.5,9.4-11.4,14.1-17.2.6-.8.8-1.4,1.4-2.5h0l-.3-.3ZM101.6,322.1c2.5,3.9,5,7.2,7.8,10.5.6.6,1.9.6,2.8.8,0-.8.6-2.2,0-2.8-2.5-3.9-5.3-7.5-8-11.4-1.4-1.9-3.6-2.2-5-.6-3.6,3.9-6.9,8-10.3,12.5-.3.6,0,2.2.6,2.8.3.3,1.9,0,2.5-.3.6,0,.8-.8,1.4-1.4,2.5-3.3,5-6.1,7.8-9.7h0l.6-.6ZM101.4,264.5c-3-3.6-5.5-6.6-8.3-9.7-.6-.6-1.9-.6-2.8-.8,0,1.1,0,2.5.3,3,2.5,3.3,5.3,6.4,7.8,9.7,1.9,2.2,4.2,2.5,6.1,0,2.8-3.3,5.5-6.4,7.8-9.7.6-.8,0-2.2.3-3.3-1.1.3-2.5.6-3.3,1.4-2.8,3-5.3,6.1-8.3,9.7h0l.6-.3Z"/>
          <path class="st0" d="M221.3,229.3h-12.5c-1.4,0-3-.6-4.4-1.4-1.7-1.1-2.2-2.8-1.4-5,.8-1.9,2.2-2.5,4.4-2.2,12.2,1.7,24.4,0,36.3-.6,5.3,0,10.8-.3,16.1.6,14.7,2.5,24.4,13.6,25.2,28.8,1.4,25.8-18.3,47.7-44.3,49-2.2,0-2.8.8-2.8,3v42.9c0,4.7.8,5.3,5.5,5,1.4,0,3,0,3.3,1.7,0,1.9-1.1,3-3.3,3h-28.8c-1.1,0-2.8-1.1-3-1.9-.3-1.9,1.4-1.9,3-1.9,4.7,0,7.2-2.5,7.2-7.2v-113.6h-.3l-.3-.3ZM236.8,261.2h.6v28.3c0,4.2.8,5,5,3.9,2.5-.8,5-1.4,7.5-2.8,15.2-7.8,21.9-25.8,19.7-40.4-1.1-7.8-5-13.6-11.9-17.2-5-2.8-10.8-4.2-16.6-3.6-3.3,0-3.9.6-4.2,4.2v28h0v-.3Z"/>
          <path class="st0" d="M553.2,237.6c.8-1.9,1.4-3.9,2.2-5.5.8-1.4,1.9-3,3.9-1.9,1.9.8,1.7,2.8.8,4.4-2.8,5.8-2.8,11.9-3.3,18.3,0,3-.3,6.1-.6,9.1,0,1.4-.6,2.8-1.1,4.4-.8,2.2-2.5,3.9-5.3,3.9s-4.4-1.9-5-4.4c-.6-1.9-.6-3.9-.8-5.5v-6.9c-1.7-13.3-12.2-19.9-24.9-15.8-6.9,2.2-11.6,6.9-15.2,13-5.3,8.9-7.8,18.6-9.1,28.5-2.5,16.1-2.2,32.1,3.3,47.7,3.9,10.8,9.7,19.9,21.1,24.7,11.1,4.4,20.2,2.5,28-6.9.6-.8,1.1-1.4,1.7-1.9,1.1-1.4,2.8-1.9,4.2-.6.6.8.8,2.5,0,3.6-3.9,7.5-10.3,11.9-17.7,15.2-16.6,7.2-33,2.5-44.6-13-6.9-9.4-10.3-19.9-11.4-31.6-1.9-19.9.8-39.3,9.1-57.6,7.8-17.2,21.3-26.9,40.2-28.8,9.1-.8,17.2,1.4,23.5,8.3,0,0,.3.3.6.6h.3l.3-1.1Z"/>
          <path class="st0" d="M378.4,283.1c-2.5,0-5,.3-7.2.6-1.9,0-3.9-.8-3.9-3s1.4-2.5,3.3-2.8c2.5,0,5-.6,8-.8,0-7.8,0-15.8-3-23-.6-1.4-1.9-2.2-3.3-3.3-.6-.8-1.7-1.9-1.4-2.5.3-.8,1.4-1.9,2.5-2.2,6.1-1.9,15,2.2,16.6,8.3,1.4,5.8,1.9,12.2,2.5,18.3v3c3.3-.3,6.1-.6,9.1-.8,2.2,0,4.7-.3,6.9-.3s3.3,0,3.6,1.7c.3,1.9,0,4.4-2.5,5-1.9.6-4.2.8-6.1.8h-9.4c-1.4,0-2.2.3-2.2,1.9-.8,14.1-1.7,28.8-1.9,42.9,0,5.5.6,11.4,1.1,17.2,0,1.9.8,3.9,1.7,5.5,1.9,3.6,5.5,3.9,8,.8.3-.3.8-.8,1.1-1.1.8-.3,1.9-.8,2.5-.8.8.8,1.4,1.9,1.4,2.8-.6,4.7-8.6,11.6-14.1,12.2-5.5.6-10.3-1.9-12.2-8.3-1.7-5.5-3-11.4-3.3-16.9,0-10.8.6-21.9,1.1-32.7.3-6.9.8-13.6,1.1-20.5v-1.1h-.8l.8-.8Z"/>
          <path class="st0" d="M716.4,315.2c0-1.4,0-3.6.3-5.5,0-2.5,0-4.7-2.2-6.4-1.7-1.1-1.4-2.5.8-2.5s3.3-1.9,3.6-3.9c1.4-6.6,3-13.3,6.9-19.1,4.4-6.6,10.3-10.8,18.3-11.1,6.6,0,11.9,3.3,14.1,9.4,2.8,7.2,3.6,14.7,2.2,22.2-.6,3.6-2.5,5.5-6.1,6.1-7.2.6-14.1,1.1-21.3,1.4-2.5,0-3.6,1.1-3.6,3.9,0,6.1.8,11.9,3.3,17.7,4.4,10.5,14.1,11.9,21.9,3.3,1.4-1.4,2.5-3.6,3.9-5,.6-.8,1.9-.8,2.8-1.4.3,1.1.8,1.9,1.1,3.3v.6c-2.2,7.8-14.1,17.7-22.4,18.3-6.9.8-12.2-1.9-16.6-6.9-5.5-6.6-7.2-14.7-7.2-23.8h0l.3-.6ZM747.4,291.1h0v-5.8c-.6-3-1.1-6.1-2.2-8.6-1.4-3.3-5-3.6-7.2-.8-.6.8-1.1,1.4-1.7,2.2-3.3,6.1-5,12.5-5.5,19.4,0,1.9.6,2.5,2.2,2.5h12.5c1.4,0,2.2-.8,2.2-2.5v-6.4h-.3Z"/>
          <path class="st0" d="M362.1,291.7c-.6,10.5-2.5,12.5-13,12.7-5.5,0-10.8.8-16.3.8s-2.8,1.1-3,3.3c0,6.6.8,13,3.9,19.4,4.7,9.7,13.9,10.8,21.1,3,1.4-1.4,2.5-3.3,3.9-5,.8-.8,2.5-1.9,3-1.9,1.9.8,1.7,2.8.8,3.9-3.3,4.4-6.4,8.3-10.3,12.5-3,3.3-6.9,5-11.4,5.5-8.3,1.1-14.7-2.5-19.1-9.4-5-7.8-5.8-16.3-5-25.2,0-3.3,1.1-6.4-2.5-8.6-1.4-.8-.6-1.9.8-2.2,2.8,0,3.3-1.9,3.9-4.4,1.1-6.6,3-13,6.6-18.8,4.2-6.4,9.7-10.8,17.7-10.8,7.8-.3,13.6,3.6,15.5,10.8,1.4,4.7,1.9,9.7,2.8,14.1h.3l.3.3ZM347.9,290.8h0v-1.7c-.8-4.2-.8-8.3-2.5-12.5-1.4-3.9-5-4.2-7.8-.8-.6.8-1.1,1.4-1.4,2.2-2.8,6.1-4.7,12.2-5.5,18.8,0,2.5.8,3.3,3,3.3h11.1c2.2,0,3.3-1.1,3-3.3v-5.8h0v-.3Z"/>
          <path class="st0" d="M671,297.5c1.1-2.5,2.2-5,3.6-7.2,4.4-7.5,10-13,18.8-15,5.5-1.1,10.3.8,13,5.5,5,8.6,6.1,17.7,4.4,27.4-.6,3.3-2.2,4.4-5.5,4.7-6.6.3-13,.8-19.4,1.1-4.2,0-4.4.6-4.4,4.7.3,6.4,1.7,12.5,4.4,18.3,4.4,8.9,12.2,10.3,19.1,3.3,1.9-1.9,3.9-4.7,5.8-6.9.3-.6,1.4-.8,1.9-.8,0,.8.8,1.4.8,1.9-2.5,10.5-14.7,23-27.2,19.9-6.4-1.7-10.8-5.8-13.6-11.4-3.3-6.4-4.2-13.3-4.2-20.2v-4.2c0-1.9,0-3.9-2.2-5-.8-.3-1.1-1.7-1.7-2.5.8-.3,1.9-.8,2.8-1.4s2.2-1.1,2.5-1.9c.8-3.3,1.1-6.9,1.7-10.3h0l-.8-.3ZM698.4,298.6h.3c-.8-4.4-1.1-8.3-2.2-12.7-.8-3.3-3.6-3.9-6.1-1.9-1.4,1.1-2.5,2.8-3.3,4.4-2.8,5.5-4.2,11.6-4.7,18,0,1.7.6,2.2,2.2,2.2,3.3,0,6.6-.6,10-.6s3.3-1.4,3.6-3.3,0-4.2.3-6.1h0Z"/>
          <path class="st0" d="M311.9,300.5c0,2.2-.3,4.4-.8,6.6-.6,3.9-2.2,5.3-6.1,5.5-6.6.3-13,.8-19.4,1.1-3.9,0-4.4.6-4.2,4.4.3,6.4,1.7,12.5,4.4,18.3,4.4,8.9,12.2,10.3,19.1,3.3,1.9-1.9,3.9-4.7,5.8-6.9.3-.6,1.4-.8,1.9-.8,0,.8.8,1.4.8,1.9-2.5,10.5-14.4,22.2-25.8,19.9-6.1-1.1-10.3-4.4-13.6-9.4s-5-10.5-5.3-16.3v-8.6c0-3,.3-5.5-3-7.2-.6,0-1.1-1.7-.8-1.9.3-.6,1.4-1.4,1.9-1.1,2.5,0,3-1.1,3.3-3.3,1.4-10.8,5.3-20.2,14.1-26.9,2.5-1.9,5.5-3.3,8.6-4.2,6.4-1.7,11.4.8,14.4,6.6,2.5,5,4.4,11.9,4.4,18.6h.3l-.3.3ZM299.2,298.3c-.6-3.9-.8-8-1.9-11.9-.8-4.2-4.4-5-7.2-1.7-1.4,1.4-2.5,3-3,5-1.4,3.9-2.8,7.8-3.3,11.6-1.4,8.6-1.9,7.5,6.4,7.2,8.9-.6,8.9-.8,9.1-9.7h0v-.6Z"/>
          <path class="st0" d="M447.9,270.3c.8-.6,1.4-1.7,2.5-2.2.6-.3,1.9,0,2.5,0s.6,1.7.3,2.2c-1.7,3.3-1.4,6.4-1.1,9.7,0,1.4.3,3.3-.3,4.4-.8,1.4-2.2,2.8-3.9,3-1.4,0-3.3-.8-4.4-1.9s-1.1-3-1.4-4.7c-.8-3.9-3-6.1-6.9-6.6-4.2-.6-7.8.6-10.3,3.9-1.4,1.9-.8,4.4,0,6.6,2.2,5.5,5.5,10.5,10,14.7,3.6,3.6,7.2,7.2,10.3,10.8,3.6,4.2,6.1,8.9,6.6,14.4,1.4,15.8-16.3,29.4-31,24.1-7.5-2.5-12.5-9.7-12.2-17.2,0-1.1,0-2.5.8-3.3,1.4-3,5-3.3,6.9-.3.8,1.4,1.4,3.3,1.9,5,1.4,5,3.9,8.9,9.4,10.3,5.5,1.4,10.5-2.2,11.1-8,.3-3.9-.8-7.5-2.8-10.5-3.3-4.7-7.2-9.1-10.8-13.6-3.6-4.7-7.8-9.1-10.3-14.4-6.9-14.4,4.7-31.3,20.5-30.2,4.2.3,8.3,2.2,12.5,3.6v.6-.3Z"/>
          <path class="st0" d="M416.6,253.7c3.3,0,5,1.9,4.2,5-1.1,5-4.2,8.3-8,11.1-1.7,1.1-3,.6-3.3-1.4-.3-3-.8-6.1-.6-9.1,0-3,3.9-5.5,7.8-5.5h0Z"/>
          <path class="st0" d="M762.9,270.9h4.7c-3.9,1.7-.8,5.5-2.2,7.8-1.7-2.2,1.4-5.8-2.5-7.8h0Z"/>
        </g>
      </g>
    </g>
  </g>
</svg>