<?xml version="1.0" encoding="UTF-8"?>
<svg width="629.13" height="120" fill="#c8102f" version="1.1" viewBox="0 0 629.13 120" xmlns="http://www.w3.org/2000/svg" xmlns:cc="http://creativecommons.org/ns#" xmlns:dc="http://purl.org/dc/elements/1.1/" xmlns:rdf="http://www.w3.org/1999/02/22-rdf-syntax-ns#">
 <metadata>
  <rdf:RDF>
   <cc:Work rdf:about="">
    <dc:format>image/svg+xml</dc:format>
    <dc:type rdf:resource="http://purl.org/dc/dcmitype/StillImage"/>
    <dc:title/>
   </cc:Work>
  </rdf:RDF>
 </metadata>
 <path d="m620.92 106.94c0-0.88916-0.65737-1.4705-2.1013-1.4705-0.59278 0-1.0184 0.0532-1.2616 0.1216v2.7511h1.0754c1.2692 0 2.2875-0.40279 2.2875-1.406m2.2115 4.48c0.30399 1.4744 0.48259 2.0709 0.72578 2.4205h-2.4547c-0.30778-0.34959-0.48258-1.235-0.78276-2.3559-0.1786-1.064-0.77517-1.5389-2.0367-1.5389h-1.0868v3.8948h-2.2761v-9.6668c0.90057-0.17479 2.1583-0.29638 3.7846-0.29638 1.8581 0 2.6979 0.29638 3.4123 0.70677 0.53958 0.41418 0.95757 1.178 0.95757 2.1279 0 1.0488-0.83597 1.8885-2.0405 2.2305v0.114c0.96516 0.35718 1.5047 1.0678 1.7973 2.3635m3.4769-2.5573c0-4.3014-3.1729-7.7897-7.5579-7.7897-4.3698 0-7.5997 3.4883-7.5997 7.7289 0 4.2976 3.2299 7.7137 7.6605 7.7137 4.3242 0 7.4971-3.4161 7.4971-7.6529m2.5231-0.114c0 5.4718-4.385 9.7694-10.081 9.7694-5.6238 0-10.119-4.2938-10.119-9.7732 0-5.3654 4.4952-9.6668 10.119-9.6668 5.696 0 10.081 4.3014 10.081 9.6668m-151.12-23.084c-6.4104-0.35339-11.772-3.6099-10.222-12.247 0.34959-1.9303 1.425-3.8606 2.6067-5.3654-0.0646 0.0076-8.9296 0.82837-17.703 17.073-6.5699 12.171-5.5364 25.239 2.6409 25.592 6.5129 0.28119 15.051-6.6573 20.113-17.886a43.926 43.926 0 0 0 2.5649-7.1665m-139.86-0.20519c-8.3217 0.30399-11.666-6.9081-10.252-12.631 0.49018-1.9759 1.4477-4.2786 3.4769-5.8822l-0.37999 0.0152c-8.4091 0.85117-14.382 9.6098-18.315 17.627-6.1178 12.486-5.2058 25.345 2.4433 25.729 6.4559 0.33059 14.648-6.361 20.025-17.487 0.88156-1.8353 2.4091-5.6998 3.0019-7.3717m-63.982-16.442c-4.1418 0.1216-19.501 0.47498-28.48 0.75617 6.1444 2.3179 16.351 9.1804 18.912 24.042 0.49398-1.3413 6.4787-17.061 9.568-24.798m324.13 12.737c0.96136 2.0519 3.777 7.1513 5.0804 10.982 1.6339 4.803 1.3528 7.8581 1.1248 9.5376-1.4287 10.643-8.4737 16.742-20.599 16.944-6.8245 0.114-12.54-1.6111-15.294-6.3343-1.3451-2.3179-1.7099-5.1146 0.42559-7.8505a16.871 16.871 0 0 1 2.8119-2.7663c0.83217-0.62317 1.5199-0.90436 2.1013-0.87396 1.5807 0.0874 1.9949 0.91956 2.5155 4.1342 0.62697 3.9214 3.0285 6.3154 6.3572 6.247 1.14-0.019 5.2058-0.33439 6.4293-4.3698 0.89296-2.9297 0.0532-6.4902-2.3559-10.795-3.1045-5.5554-4.5218-10.222-4.3166-14.705a228.77 228.77 0 0 0-8.5383 10.472c-10.837 14.086-15.944 21.549-24.251 24.802-4.2254 1.6567-8.4737 1.8239-11.445 1.0108-7.4743-2.0405-7.9037-8.789-7.3945-13.071 0.60797-5.1184 3.1577-12.767 7.7251-22.552-14.021 13.193-27.454 30.045-29.863 33.021-2.3179 2.8613-5.0044 1.7745-6.5737 0.79797-1.8999-1.1894-2.6105-1.6643-4.385-2.8955-2.0671-1.4325-2.5535-2.1545-1.6263-5.6808 2.1773-8.2609 7.0031-21.545 11.464-31.353-5.0006 3.5149-9.5604 5.4832-15.173 6.7295-0.64598 3.872-2.1203 7.9189-4.5028 12.038-9.2032 15.975-25.505 26.059-41.475 22.605-7.9265-1.7213-12.422-7.5085-13.147-15.161-5.6808 7.3337-10.476 10.4-15.161 12.562-5.8518 2.6979-10.925 1.9303-12.167 1.6567-7.9645-1.7631-8.4509-8.4357-7.6643-13.786 0.18239-1.2236 0.55478-2.7815 1.083-4.6054-7.9721 9.6402-15.64 15.302-21.834 17.696-3.3135 1.273-7.7973 2.2191-12.152 1.4136-5.6314-1.0412-8.846-5.2286-8.3331-12.654 0.57757-8.4167 6.7827-19.258 20.025-33.826-1.7935-0.82457-2.9069-2.4395-3.3971-4.0848-3.8188 4.7308-12.672 10.883-20.899 14.401-0.67637 4.7574-2.3293 9.3856-4.9208 14.021-8.7776 15.655-26.109 26.067-41.776 21.842-13.634-3.6782-16.955-19.512-7.5465-35.316a49.877 49.877 0 0 1 12.805-14.272c-9.5148 0.36098-19.489 0.71057-19.489 0.71057s-10.45 23.506-20.037 47.536c-0.71437 1.7859-2.4623 4.0278-5.8708 1.8809-1.6719-1.0602-2.6523-1.7821-5.0158-3.6213-1.8771-1.4591-1.9949-2.3787-2.0025-4.3698 0.0494-16.275-6.5509-31.071-20.261-35.529-5.3046 12.577-11.168 27.655-17.001 42.414-1.2274 3.1045-3.8644 2.5953-6.6725 0.70677-1.7859-1.2008-3.0323-2.0899-4.6738-3.3819-2.5079-1.9531-2.9753-2.7093-1.5731-6.6839 1.3869-3.9442 7.2919-19.9 13.467-36.372-1.5199 0.0456-6.4635 0.22799-6.4635 0.22799-1.6491 0.057-2.5839-0.22799-3.0855-1.5009-0.68017-1.7479-1.0982-2.8499-1.5693-4.1874-0.61177-1.7251-0.47878-3.3059 2.5117-3.5339 1.14-0.0836 6.6231-0.25839 12.205-0.48638 10.051-25.299 23.278-54.315 25.581-58.981 1.5731-3.1843 4.2254-2.9601 6.6839-1.5769 1.7935 1.0108 4.1874 2.3863 7.1361 4.2596 2.7511 1.7555 3.8378 3.0399 1.8087 7.2919-0.36859 0.76757-12.137 24.87-22.708 48.615 5.8708-0.21659 27.473-0.92336 33.233-0.99936 10.157-24.615 20.785-47.878 22.37-51.313 1.0108-2.1925 1.9873-3.9974 5.8214-2.0329 4.2558 2.1887 5.1716 2.5763 7.8657 4.1608 2.5079 1.4819 3.3515 2.6523 1.8011 5.8518-0.75997 1.5655-10.168 21.013-19.812 42.934 5.2058-0.1292 25.702-0.60418 31.835-0.77897 1.9113-0.057 9.5566-0.36479 13.239 0.61938 5.7834 1.5503 9.3096 5.183 11.24 10.4 0.35719 0.91196 0.89297 2.9487 1.102 4.0886 9.8188-4.9626 19.303-13.261 24.593-22.412 1.064-1.8467 2.2305-2.0215 4.4458-1.1666 1.7365 0.66877 1.3755 2.2267 1.0222 3.3895-0.83597 2.6713-0.90057 5.4718 0.22799 7.3451 1.0526 1.7555 2.3673 3.4617 9.7884 4.3166 1.6985 0.19759 2.4851 0.88536 2.8689 2.0443 0.38379 1.1704 0.57378 2.0785-1.2768 4.1304-9.7352 10.784-15.754 18.049-19.094 26.565-4.0354 10.294 0.50158 9.8948 2.6865 9.3818 6.0266-1.4136 19.531-14.363 29.126-30.802 3.4389-8.3217 7.4097-17.365 11.126-25.626-5.2134 0.31159-8.3673 0.52438-9.0246 0.56998-2.2267 0.16339-2.6523-0.96136-3.0627-1.9151-0.41038-0.94996-0.76377-1.9151-1.216-3.2147-0.45598-1.2995-0.45598-2.6675 2.3673-2.9411 0.82076-0.076 6.6079-0.54338 14.861-1.1514a1297 1297 0 0 1 8.6902-18.612c1.6339-3.4009 3.7087-4.176 6.9347-2.3103 2.9829 1.7175 3.4883 2.0443 5.9658 3.6137 2.3179 1.4781 3.3667 2.4319 1.5883 6.2584-1.5883 3.4275-3.1007 6.6611-4.5446 9.7352 16.605-1.1134 35.373-2.2039 46.229-2.3179 3.2793-0.038 3.8796 0.40278 4.5598 1.8809 0.71057 1.5351 1.2122 2.6219 1.8733 4.1874 0.74477 1.7403 0.1368 3.1539-1.9379 3.2109a2237.8 2237.8 0 0 0-54.946 2.0215c-7.9911 16.978-13.983 29.859-20.823 48.03-3.6479 9.6744 1.8961 8.2913 2.4471 8.1165 7.3375-2.3369 14.698-14.732 23.445-27.5 10.032-14.633 24.714-21.306 37.303-18.247 4.7004 1.1476 7.9417 3.0475 10.385 6.8625 0.76757 1.0336 1.4667 2.4433 1.8999 3.7239 0.52058 1.6301 0.94996 3.4731 1.083 5.4262 7.3717-1.9759 13.759-5.582 20.949-12.615 1.5389-1.5009 3.1805-2.3749 6.228-0.28879 1.9227 1.3185 3.1539 2.1203 4.9208 3.4959 2.4395 1.9075 3.5871 2.8157 1.2236 7.0867-1.33 2.4053-5.1944 9.6516-10.966 24.129 12.893-15.56 28.837-30.627 32.238-32.945 0.90056-0.61938 2.5649-1.5199 5.4414 0.24699 1.9113 1.178 2.8423 1.7479 4.7384 3.1349 2.4547 1.7897 3.3325 3.1425 1.5617 6.6877-1.6909 3.3857-7.4553 13.987-10.564 24.19-2.5003 8.2001 0.35718 8.7662 2.5079 8.1317 2.9183-0.87396 6.7637-4.9018 15.237-15.792 7.4021-9.5186 13.972-17.175 21.876-24.661 2.1355-2.0215 5.2666-4.803 7.3641-6.4217 1.5959-1.235 3.3895-2.3483 4.784-2.4471 0.98796-0.0646 1.5807 0.17479 2.7511 1.2654 0.94236 0.87396 1.1134 1.0488 1.7327 1.6415 1.2844 1.2236 1.9531 1.7593 2.0329 2.7093 0.12919 1.5845-0.66497 2.0367-2.4775 3.4807l-0.86637 0.71057c-3.7618 3.1159-8.0177 7.2083-5.126 13.356m-510.19-30.733c5.5364-0.88536 9.7048-6.0874 9.2868-11.601-0.37618-4.9626-4.2596-8.5687-9.2336-8.5687-0.53198 0-1.0754 0.0418-1.6187 0.1292-5.5326 0.88536-9.701 6.0912-9.2868 11.605 0.37238 4.9626 4.2558 8.5649 9.2336 8.5649 0.53198 0 1.0754-0.038 1.6187-0.1292m98.146 26.424c2.3559-4.309 1.349-5.4794-1.3224-7.3109-2.2685-1.5655-2.7321-1.9531-4.271-2.9449-3.0399-1.9645-5.1792-1.2046-7.5427 0.93476-8.2457 7.4743-20.352 19.801-29.335 30.327 5.3426-14.28 8.2533-20.485 10.21-24.881 1.6795-3.7922 1.2464-4.8524-0.88157-6.2811-1.4819-0.98796-3.0703-2.0139-5.6238-3.6213-2.2609-1.4211-4.0962-0.91196-5.6694 0.49018-5.525 4.9398-21.625 20.755-32.55 32.99 5.3502-12.452 10.02-23.114 11.673-26.637 1.5617-3.3325 1.8391-4.9322-0.86257-6.8701a83.733 83.733 0 0 0-5.7948-3.7542c-3.5111-2.1089-4.8486-0.68397-6.2318 1.4819-0.51677 0.80557-1.3033 2.1241-2.3293 3.7504-15.275 25.444-27.72 39.534-32.667 41.168-2.1241 0.70297-3.1349 0.20899-3.6289-0.25459-1.8087-1.7061-0.19759-6.5623 0.52818-8.5193 2.6067-7.0373 7.7023-18.243 12.938-28.985 1.9987-4.0962 1.3831-5.2704-1.4515-7.2691-1.7745-1.254-3.4237-2.2419-5.5554-3.5339-3.1691-1.9113-5.0842-0.91196-6.8511 2.7359-4.2368 8.7321-15.002 30.805-16.966 42.9-1.4819 9.1196 2.5079 13.151 7.7973 14.325 3.9822 0.87397 8.5383-0.22799 11.058-1.4097 5.6238-2.6333 13.455-9.2336 23.996-23.92-2.0405 5.221-4.195 11.183-5.3502 14.964-1.3033 4.2672-0.55098 5.3768 2.0367 7.0145 1.1818 0.74477 1.7327 1.121 3.4047 2.1431 1.7251 1.0564 4.3698 2.1355 6.6915-0.60417 3.0969-3.6403 19.778-23.795 32.918-36.11-3.0095 7.9037-7.5009 19.892-9.6136 27.507-0.94237 3.3857-0.1368 4.5256 2.7017 6.4027l4.2634 2.6599c0.99556 0.58897 3.8112 1.9113 6.2774-0.98796 2.3939-2.8119 16.275-20.257 27.534-31.223-4.2482 9.6098-6.6573 17.016-7.4705 22.628-0.27359 1.8809-1.5009 11.574 8.694 13.102 3.2223 0.47878 9.0892 0 13.387-4.0734 1.121-1.064 1.6111-2.3293 1.4819-3.0779-0.17479-0.95756-0.94236-1.0374-2.0899-1.1134-0.84737-0.0494-1.9189-0.1178-3.0057-0.66878-3.7504-1.8999-1.9303-6.5129-1.064-9.2906 3.2679-10.51 7.4097-18.46 10.537-24.182m-117.87-56.23c-7.5997 16.833-39.024 89.08-41.988 95.619-1.2692 2.8005-3.2679 4.0316-6.8397 2.1089a124.35 124.35 0 0 1-8.2229-4.7954c-3.4579-2.1659-2.3179-4.8904-1.2995-7.0563 9.8264-20.861 16.043-36.061 21.374-47.418 9.207-19.626 13.706-28.685 17.715-37.068-15.382 1.5883-35.498 3.4579-39.822 4.0658-5.4908 0.76757-5.9886-1.1324-7.2463-4.2862-1.0222-2.5459-0.73337-1.5389-1.2843-3.1159-1.0108-2.8879-1.9873-5.8176 3.5643-6.3913 12.091-1.2426 69.385-6.2128 113.54-7.0373 3.6934-0.075997 5.1108 0.022799 6.3458 2.6409 1.1514 2.4319 1.2996 2.3825 2.4775 5.1602 1.1856 2.7777-0.78657 4.157-3.4085 4.2596-18.813 0.75997-37.056 2.0367-54.896 3.3059" stroke-width="3.7998"/>
</svg>
