<?xml version="1.0" encoding="utf-8"?>
<!-- Generator: Adobe Illustrator 26.0.3, SVG Export Plug-In . SVG Version: 6.00 Build 0)  -->
<svg version="1.0" id="katman_1" xmlns="http://www.w3.org/2000/svg" xmlns:xlink="http://www.w3.org/1999/xlink" x="0px" y="0px"
	 viewBox="0 0 600 450" style="enable-background:new 0 0 600 450;" xml:space="preserve">
<style type="text/css">
	.st0{fill:#312418;}
	
		.st1{clip-path:url(#SVGID_00000155860325146449473130000013935105892695568261_);fill-rule:evenodd;clip-rule:evenodd;fill:#312418;}
	.st2{clip-path:url(#SVGID_00000155860325146449473130000013935105892695568261_);fill:#312418;}
	.st3{clip-path:url(#SVGID_00000155860325146449473130000013935105892695568261_);fill:#79AFBC;}
</style>
<g>
	<path class="st0" d="M467.9,230.3h8.2v-3.9h-8.2V223h8.2v-4.3h-12.5v19.5h4.3V230.3z M438.9,230.3h8.3v-3.9h-8.3V223h8.3v-4.3
		h-12.7v19.5h4.3V230.3z M411.1,218.2c-5.7,0-10.3,4.6-10.3,10.3c0,5.7,4.6,10.3,10.3,10.3c5.7,0,10.3-4.6,10.3-10.3
		C421.2,222.8,416.7,218.2,411.1,218.2L411.1,218.2z M411.1,234.4c-3.3,0-6-2.7-6-6c0-3.3,2.7-6,6-6c3.3,0,6,2.7,6,6
		C416.9,231.8,414.4,234.4,411.1,234.4L411.1,234.4z M385.3,231.5c-1,1.8-3,3-5.1,3c-3.3,0-6-2.7-6-6c0-3.3,2.7-6,6-6
		c2.2,0,4.2,1.2,5.1,3l3.3-2.8c-1.8-2.7-4.9-4.3-8.3-4.3c-5.7,0-10.3,4.6-10.3,10.3c0,5.7,4.6,10.3,10.3,10.3c3.4,0,6.6-1.8,8.3-4.3
		L385.3,231.5z M506,234h-8.9v-3.7h8.9v-3.9h-8.9V223h8.9v-4.3h-13.2v19.5H506V234z M536.4,234h-8.9v-3.7h8.9v-3.9h-8.9V223h8.9
		v-4.3h-13.2v19.5h13.2V234z M536.4,234"/>
	<g>
		<defs>
			<rect id="SVGID_1_" x="44" y="163" width="512" height="125"/>
		</defs>
		<clipPath id="SVGID_00000133501995781622085520000017983751749774810547_">
			<use xlink:href="#SVGID_1_"  style="overflow:visible;"/>
		</clipPath>
		
			<path style="clip-path:url(#SVGID_00000133501995781622085520000017983751749774810547_);fill-rule:evenodd;clip-rule:evenodd;fill:#312418;" d="
			M133.8,223.4c3.7-0.3,4.6-1.8,4.2-4.3c-0.4-2.7-3.7-3.4-5.5-3c-1.8,0.3-3.3,1.2-3.3,3C129.2,220.6,130.1,223.6,133.8,223.4
			L133.8,223.4z M133.8,223.4"/>
		<path style="clip-path:url(#SVGID_00000133501995781622085520000017983751749774810547_);fill:#312418;" d="M162.2,222.8
			c-0.6,0-0.9-0.4-0.7-0.9c0,0,3.9-8.5,4.2-9.4c0.4-1.3-0.3-2.5-3-1.6c-6,2.1-15.9,24.9-21.7,24.6c-4.3-0.1-3.3-9.8-8.3-9.2
			c-4,0.4-7.3,10.9-10.3,9.8c-4-1.3-3.6-6.4-3.6-9.5c0-3.1,1.6-5.8-10.4-2.4c-0.5-0.6-1.5-1.9-3.3-2.5c-1.6-0.4-3.3,0.4-6.1,3.1
			c-1.8,1.8-1.3,2.5,1.9,3.9c-0.7,2.1-3.7,8.3-8.6,7.1c0,0,1.9-5.7,1.6-8.5c-0.3-1.8-0.9-2.5-2.5-2.7c-2.1-0.3-2.2,1-4.2,0.7
			c-1.3-0.1-1.6-1.6-4.9-1.2c-4,0.4-5.7,2.1-6.7,3.3c-1.5,1.8-2.4,4-2.2,4.9c-2.7,1.3-14.1,4.2-18.6,0c-4-3.6,0.6-15.8,12.3-19.8
			c14.3-4.9,1.9,6,9.4,5.4c0.9-0.1,2.5-1.8,2.7-2.1c10.6-11.3-13.7-12.8-28.3,0.7c-12.3,11.5-7,24,7.1,24.6c9.8,0.4,14.7-2.1,17-3.7
			c4.3,4.9,12.9,1.5,12.9,1.5s3.3,2.2,7.3,1.3c9.2-1.9,10.9-10.4,12.1-11.5c0.7-0.6,3.7-0.6,3.7-0.6s1.2,6.1,4.9,9.8
			c1.8,1.8,6.2,4.5,11,2.8c5.6-1.8,4.2-5.7,6-5.7c3.3-0.1,0.4,5.4,9.2,5.5c5.4,0.1,10.1-3.4,10.1-3.4s0.7,1.8,8.8,1.9
			c8,0.1,12.5-3.4,13.6-6.6C177.7,223.1,166.1,222.7,162.2,222.8L162.2,222.8z M86.8,235.3c-1.2,0.9-4.2,0.7-5.7-0.6
			c-1-0.9-1.6-2.2-0.9-3.4c0.6-1,3.4-3.6,6.6-0.9C88.3,231.8,86.9,235.2,86.8,235.3L86.8,235.3z M166.2,231.9
			c-2.2,1.3-7.1,3.6-10,0.9c-2.4-2.2,3.3-6.6,8.6-6.1C169.7,227,168.5,230.6,166.2,231.9L166.2,231.9z M232.8,233.8
			c-0.9,0-2.2,1-3.3,0.9c-1-0.1-1.9-3.4-1.6-6.3c0.1-2.4,0.5-4.5-2.7-4.5c-7.1,0-3.9,11.3-10.7,11.2c-5.8-0.1-1.3-11.9-6.2-12.5
			c0,0-3-0.5-8.8,3.1c-1,0.6-1.6,0.1-1.9-0.3c0,0-3.1-5.1-9.5-3.4c-9.1,2.2-10.6,10.4-11.6,12.8c-0.6,1.5-2.8,2.2-3.1,3.1
			c-0.3,0.9,1.6,2.2,3,2.2s3-1.9,5.2-1.5c2.2,0.4,5.7,3.6,11,1.8c5.5-1.9,6.8-8.2,6.8-8.2s4.6-4.3,6-2.5c1,1.2-0.3,6.1,2.2,8.6
			c1.5,1.3,6.2,2.5,9.8,2.1c4.6-0.7,6.1-3.3,6.1-3.3s1.5,1.9,5.2,1.3c3.9-0.6,5.7-3.1,5.7-3.6C234.4,234.3,233.7,233.8,232.8,233.8
			L232.8,233.8z M192.9,231.5c-0.9,3-6.8,7.7-8.5,1.9c-1.6-5.8,3.3-7.9,5.5-7.4C192.3,226.4,193.8,228.6,192.9,231.5L192.9,231.5z
			 M192.9,231.5"/>
		<path style="clip-path:url(#SVGID_00000133501995781622085520000017983751749774810547_);fill:#79AFBC;" d="M335.3,258.7l-12.7-67
			h-63.6l-12.7,67c-1.3,5.8,1.5,11.9,6.6,13.8l33.6,13.5c1.2,0.4,2.2,0.7,3.4,0.7c1,0,2.2-0.1,3.3-0.6l35.1-13.5
			C333.7,270.8,336.5,264.7,335.3,258.7L335.3,258.7z M335.3,258.7"/>
		<path style="clip-path:url(#SVGID_00000133501995781622085520000017983751749774810547_);fill:#312418;" d="M313.6,213.5
			c0-0.1-0.1-0.3-0.1-0.4l-1-1c-0.5-0.4-0.9-1.2-0.7-1.9c0-0.5,0.1-0.9,0.3-1.3l0.6-1c0.1-0.1,0.1-0.3,0.1-0.6
			c0-0.6-0.4-1.2-1.2-1.2h-0.5c-1.2,0.5-2.5,0.6-4,0.7c-3.7,0.5-7.7,0.3-12.1-0.4c-21.3-4.2-24.4-14.1-23.7-18.6
			c0.3-1.8,1.2-3.3,2.5-4.6c3-3,9.5-4.9,17.3-4.5c1.8,0,5.2,0.6,5.2,0.6c0.5,0,0.7-0.1,0.9-0.4c0.4-0.9-1.2-1.5-2.4-2.4
			c-3.3-2.5,5.2-4.5,5.5-5.5c0.6-1.6-3.3-1.3-5.1-2.2c-2.7-1.6,3.7-4.3,4.2-4.8c0.3-0.3,0.2-0.7-0.4-0.7
			c-18.8-0.4-33,12.4-32.5,25.8c0.7,14.3,19.2,25.6,41.4,25.3c1.3,0,4.3,0,5.1-0.6C313.4,213.8,313.6,213.6,313.6,213.5L313.6,213.5
			z M318.7,222.2c0-1.2-0.9-2.1-2.1-2.2l-23.8-3.3h-0.1c-0.4,0-0.7,0.3-0.7,0.7v0.4c0,2.5,1.8,4.5,4.2,4.9v3.3c0,2.2,1.8,4,4,4h0.5
			l15.3-1.8c1-0.1,1.8-0.9,1.9-1.8l0.9-3.9V222.2z M302.9,242.3c0.9-0.3,1.3-1.2,1.2-2.1c0-0.3-0.2-0.6-0.3-0.7
			c-1.6-3-5.2-8.5-15.8-5.1c0,0-19.9,6.6-20.5,16.2c-17.7,7.9-33.6,19.2-46.9,32.9l10.6,3.3c0,0,1,0.3,1.8,0.3s1.5-0.4,2.1-1
			c18.8-20.5,35.9-34.4,67.4-43.6C302.6,242.3,302.9,242.3,302.9,242.3L302.9,242.3z M302.9,242.3"/>
	</g>
	<path class="st0" d="M324.6,241.1c-28.1,3.3-51,16.4-51,16.4c-0.3,0.2-0.6,0.6-0.6,1c0,0.3,0.3,0.7,0.7,1.2
		c3.4,3.9,8.3,6.3,28.4-2.2c3.6-1.5,5.4-4,5.2-7.6c0,0,6-1.6,14.3-1.8c15.2-0.3,20.8,2.1,28.6,3.1h0.7c1.2-0.1,2.1-0.7,2.7-1.8
		l3.7-9.1C348.9,239.9,338.2,239.6,324.6,241.1L324.6,241.1z M324.6,241.1"/>
	<path class="st0" d="M545.5,234.4c0-2.7,2.1-4.6,4.8-4.6c2.7,0,4.8,1.9,4.8,4.6c0,2.7-2.1,4.6-4.8,4.6
		C547.6,239.1,545.5,237.1,545.5,234.4L545.5,234.4z M553.8,234.4c0-2.4-1.5-3.7-3.7-3.7c-2.1,0-3.6,1.3-3.6,3.7
		c0,2.2,1.5,3.6,3.6,3.6C552.2,238,553.8,236.7,553.8,234.4L553.8,234.4z M552.3,236.7h-1.5l-0.6-1.2h-0.6v1.2h-1.3v-4.6h1.9
		c1.2,0,1.9,0.9,1.9,1.6c0,0.6-0.3,1.2-0.7,1.5L552.3,236.7z M550.4,234.4c0.1,0,0.6-0.1,0.6-0.6c0-0.5-0.3-0.6-0.6-0.6h-0.6v1.2
		H550.4z M550.4,234.4"/>
</g>
</svg>
